<?xml version="1.0" standalone="no"?>
<!DOCTYPE svg PUBLIC "-//W3C//DTD SVG 20010904//EN"
 "http://www.w3.org/TR/2001/REC-SVG-20010904/DTD/svg10.dtd">
<svg version="1.0" xmlns="http://www.w3.org/2000/svg"
 width="882.000000pt" height="1280.000000pt" viewBox="0 0 882.000000 1280.000000"
 preserveAspectRatio="xMidYMid meet">
<metadata>
Created by potrace 1.15, written by Peter Selinger 2001-2017
</metadata>
<g transform="translate(0.000000,1280.000000) scale(0.100000,-0.100000)"
fill="#000000" stroke="none">
<path d="M8011 12784 c-142 -38 -236 -127 -330 -315 -51 -101 -69 -153 -101
-279 -21 -85 -45 -175 -54 -200 -23 -61 -65 -120 -101 -140 -21 -12 -32 -26
-36 -51 -9 -53 -66 -139 -93 -139 -53 0 -92 -60 -107 -166 -10 -70 -7 -65
-210 -386 -301 -474 -525 -798 -582 -837 -63 -43 -81 -67 -82 -109 -1 -45 -51
-113 -100 -136 -23 -11 -35 -26 -44 -56 -20 -66 -39 -65 -161 13 -36 23 -113
76 -171 119 -59 43 -111 78 -117 78 -5 0 -76 59 -158 131 -340 300 -488 379
-636 335 -78 -22 -155 -94 -193 -177 -24 -54 -27 -71 -22 -128 5 -76 40 -177
66 -190 25 -14 313 -91 347 -94 25 -2 32 4 52 43 15 30 22 58 20 82 -4 45 -3
45 120 -13 115 -53 239 -136 310 -206 60 -58 87 -103 137 -223 14 -36 42 -100
62 -142 l36 -77 -78 -87 c-77 -84 -245 -242 -337 -318 -47 -37 -48 -40 -48
-95 0 -31 -7 -110 -15 -176 -11 -97 -18 -123 -34 -136 -20 -16 -314 -447
-1608 -2349 -1622 -2387 -2882 -4271 -3005 -4495 -157 -286 -251 -512 -484
-1164 -74 -206 -162 -444 -195 -529 -86 -217 -78 -218 119 -12 86 91 276 286
421 434 393 402 634 670 827 921 182 235 1680 2415 2921 4250 1419 2098 1666
2469 1674 2515 5 24 13 47 17 51 4 4 54 30 112 59 58 28 116 56 129 63 18 9
33 40 66 134 46 129 127 319 177 416 35 66 7 61 263 48 164 -8 207 -19 314
-76 67 -35 215 -149 286 -218 l80 -79 -38 -13 c-110 -38 -163 -185 -101 -281
52 -81 166 -133 290 -134 154 0 244 51 306 177 41 84 45 173 9 242 -60 115
-179 204 -501 372 -118 61 -220 118 -226 125 -6 7 -78 58 -160 113 -242 161
-270 194 -204 241 18 12 30 30 30 43 0 44 43 117 80 135 38 19 80 88 80 132 0
40 325 513 657 955 129 171 166 215 204 235 97 53 135 100 126 155 -5 30 0 42
34 85 23 29 47 50 59 50 13 0 21 9 25 28 20 92 71 148 238 260 157 105 252
192 331 301 132 183 149 339 57 518 -134 262 -492 437 -750 367z"/>
</g>
</svg>
